<?xml version="1.0" encoding="utf-8"?>
<!-- Generator: Adobe Illustrator 27.3.1, SVG Export Plug-In . SVG Version: 6.00 Build 0)  -->
<svg version="1.1" id="Layer_2_00000049220110341553304070000002230743899660580257_"
	 xmlns="http://www.w3.org/2000/svg" xmlns:xlink="http://www.w3.org/1999/xlink" x="0px" y="0px" viewBox="0 0 173 167"
	 style="enable-background:new 0 0 173 167;" xml:space="preserve">
<style type="text/css">
	.st0{fill:#003366;}
</style>
<g id="Layer_1-2">
	<g>
		<path class="st0" d="M139.5,32.8c0.1,0.4,0.2,0.7,0.2,1c1.2,6.7,2.4,13.5,3.5,20.2c0.1,0.6,0,1.2-0.2,1.8
			c-2.4,6.4-4.9,12.8-7.3,19.1c-0.2,0.5-0.2,1.2,0,1.7c1.1,2.9,2.2,5.8,3.2,8.7c0.1,0.4,0.1,0.8,0,1.2c-0.3,0.9,0,1.8,0.9,2.2
			c0.7,0.3,1.7-0.1,2-0.8c0.4-0.8,0-1.7-0.8-2.2c-0.3-0.2-0.6-0.5-0.8-0.8c-1.1-2.8-2.2-5.7-3.2-8.5c-0.1-0.3-0.1-0.8,0-1.2
			c2.4-6.3,4.8-12.6,7.3-19c0-0.1,0.1-0.2,0.2-0.3c0.5,0.2,1,0.4,1.5,0.6c3.6,1.6,7.2,3.2,10.9,4.8c0.3,0.1,0.8,0.1,1.1,0
			c1-0.4,1.9-0.1,2.2,0.8c0.3,0.8-0.1,1.8-0.9,2.1c-0.9,0.3-1.7-0.1-2.1-1.1c-0.1-0.3-0.4-0.7-0.7-0.8c-0.8-0.4-1.6-0.7-2.6-1.1
			c2.7,18-1,34.3-12,48.7c-6.5,8.5-14.7,14.8-24.5,19.1c-0.6-2.2-0.7-4.3-0.6-6.5c0.2-4.2,1.2-8.1,2.2-12.1c1.1-4.4,2.1-8.8,2-13.4
			c-0.2-4.5-1.5-8.7-4.3-12.3c-2.9-3.8-5.9-7.5-8.8-11.2c-0.1-0.1-0.1-0.2-0.1-0.1c1.4-2.2,2.9-4.3,4.1-6.5c1-1.8,1.8-3.8,2.5-5.8
			c1-3-0.8-5.7-4-6c-4.4-0.4-8.7,0-13,1.1c-0.4,0.1-0.7,0.2-1.1,0.3c-1.1-2.4-2.2-4.8-3.4-7.2c-0.8-1.6-1.7-3.2-2.5-4.8
			c-3.3-6.4-8.7-10.1-15.5-11.8c-4.6-1.1-9.2-1.8-13.8-2.8c-3-0.6-5.9-1.5-8.6-3c-0.4-0.2-0.7-0.4-1.3-0.8c2.4-1.8,4.7-3.7,7.1-5.3
			C69.6,13,82,9.6,95.4,10c2.5,0.1,5,0.5,7.5,0.7c0.5,0.1,0.9,0.2,1.1,0.8c2.2,6.6,4.5,13.1,6.8,19.6c0,0.1,0,0.2,0.1,0.4
			c-0.3,0.1-0.6,0.2-1,0.4c-3.8,1.3-7.6,2.6-11.4,3.9c-1.2,0.4-1.2,0.5-0.8,1.7c1,3.3,2,6.7,2.9,10c0.1,0.4,0,0.9-0.1,1.3
			c-0.3,0.8-0.1,1.7,0.7,2.2c0.7,0.4,1.7,0.2,2.1-0.5c0.5-0.7,0.3-1.7-0.5-2.2c-0.6-0.3-0.8-0.8-0.9-1.3c-0.9-3.2-1.9-6.5-2.9-9.7
			c0.1-0.1,0.2-0.2,0.3-0.2c4-1.4,8-2.7,12-4c0.3-0.1,0.8,0,1.2,0.1c2.4,1.2,4.8,2.4,7.2,3.7c0.8,0.5,1.6,0.5,2.5,0.3
			c5.5-1.4,11-2.7,16.6-4C138.9,32.9,139.1,32.9,139.5,32.8L139.5,32.8z"/>
		<path class="st0" d="M32.4,23.5c-3.9,28-7.8,56.1-11.7,84.1c0,0-0.1,0-0.1,0c0.8-9.8,1.7-19.5,2.5-29.3c1-11.5,1.9-23,2.9-34.5
			c0.8-9.9,1.7-19.8,2.5-29.7c0.1-1.5,0.5-3,1-4.4c0.5-1.4,1.8-2.2,3.3-2c0.4,0.1,1,0.4,1.2,0.8c0.1,0.4,0,1.2-0.4,1.4
			c-0.9,0.7-0.9,1.6-0.4,2.4c0.9,1.5,1.9,2.9,2.9,4.4c0.8,1.1,1.8,2.1,2.7,3.3c1.1,1.5,1.8,3.1,1.2,5c-0.1,0.2,0.1,0.7,0.3,0.9
			c2.3,3.2,5.5,5.5,9.1,7.1c4.2,1.9,8.7,2.7,13.2,3.5c4,0.7,8.1,1.3,11.9,2.9c3.9,1.6,7.1,4.2,9,7.9c2.2,4.2,4.2,8.6,6.3,12.9
			c0.2,0.5,0.4,1.1,0.6,1.7c-0.1,0-0.2,0.1-0.2,0.2c-0.2-0.2-0.5-0.4-0.7-0.6c-1.2-1.1-2.5-1.9-4.1-2.2c-3-0.7-5.3,0.7-6.1,3.7
			c-0.7,2.8,0.1,5.4,1.1,8c0,0.1,0.1,0.2,0.2,0.3c1.2,0.8,2.4,1.6,3.5,2.4c0.4,0.3,0.8,0.4,1.2,0c0.5-0.4,1-0.6,1.5-1
			c0.2-0.2,0.3-0.5,0.5-0.7c0.3-0.5,0.6-1.2,1.1-1.6c0.9-0.8,2-1.3,3.3-2.2c-0.7-0.4-1.2-0.9-1.7-1c-0.8-0.2-1.7-0.2-2.6-0.3
			c-0.4-0.1-0.7-0.3-1.1-0.5c0.2-0.3,0.4-0.8,0.7-1c5-3.1,10.4-4.7,16.3-4.8c1.2,0,2.3,0,3.4,0.1c1,0,1.2,0.4,0.9,1.3
			c-2.3,6.7-6.4,12.1-12.3,16.2c-0.3,0.2-0.8,0.2-1.3,0.2c0-0.4,0-0.8,0.1-1.2c0.2-1,0.6-1.9,0.8-2.8c0.1-0.4-0.2-0.9-0.3-1.5
			c-1.2,0.8-2.3,1.6-3.4,2.1c-0.5,0.3-1.2,0.2-1.8,0.3c-0.4,0.1-0.8,0.2-1.2,0.3c-1.2,0.5-1.6,1.3-1.8,2.6c-0.3,1.9,0.2,3.3,1.7,4.5
			c1.6,1.3,3.1,2.6,5.1,3.3c4.2,1.4,7.7-1,7.6-5.4c0-1.4-0.3-2.8-0.6-4.3c0.3,0.2,0.5,0.4,0.7,0.6c4.1,4.2,7.6,8.8,10.6,13.7
			c2.5,3.9,2.8,8.3,2.1,12.8c-0.6,3.7-1.5,7.3-2.4,10.9c-1.3,5.3-2.2,10.6-1.2,16c0.4,2.3,1.2,4.6,2.4,6.6c0.2,0.3,0.5,0.6,0.8,0.6
			c1.5,0.2,2.6,1,3.4,2.3c0.8,1.3,1.5,2.8,2.2,4.1c0.9,1.6,1.7,3.1,2.8,4.6c0.9,1.2,1.3,1.2,2.8,0.8c0.4-0.1,1,0,1.2,0.2
			c0.3,0.3,0.4,0.9,0.4,1.3c-0.3,1.6-1.7,2.6-3.4,2.5c-0.9-0.1-1.9-0.4-2.8-0.7c-8.4-3-16.8-6-25.2-8.9
			c-12.6-4.4-25.2-8.9-37.8-13.3c-8.8-3.1-17.6-6.2-26.4-9.3c-0.5-0.2-0.9-0.3-1.3-0.6c27.4,8.1,54.8,16.2,82.4,24.5
			c-0.4-0.6-0.6-0.9-0.8-1.2c-4.5-6.9-7-14.5-6.6-22.8c0.2-3.9,0.9-7.7,1.3-11.6c0.3-3.3,0.4-6.6-0.9-9.7c-0.9-2.4-2.6-4.2-4.7-5.6
			c-0.2-0.2-0.6-0.3-0.9-0.2c-5.4,0.5-10.1-1.3-14.4-4.4c-1.3-1-2.6-2.1-3.8-3.2c-0.4-0.4-0.7-0.4-1.2-0.3c-0.4,0.1-0.8-0.1-1.3-0.1
			c-0.1,0-0.2-0.1-0.2-0.2c-0.9-0.6-1.7-1.6-2.6-1.6c-0.8,0-1.7,0.9-2.6,1.5C57.1,95.8,41,106.2,24.9,116.7c-0.7,0.4-1,0.9-0.8,1.7
			c0.3,1-0.2,1.6-1,2.3c-3.1,2.4-6.1,5-9.2,7.4c-0.3,0.3-0.8,0.3-1.2,0.5c-0.1-0.5-0.3-0.9-0.2-1.4c0.2-1.6,0.6-3.3,0.9-5.1
			c-1.4-0.2-2.8-0.4-4.1-0.8c-0.6-0.1-1.5,0.1-1.7-0.8c-0.1-0.9,0.8-1,1.4-1.2c3.4-1.9,6.8-3.7,10.2-5.5c0.9-0.5,1.5-0.5,2.2,0.2
			c0.7,0.7,1.2,0.5,2,0C39.6,103.3,55.8,92.8,72,82.3c0.9-0.6,1.2-1.3,1.4-2.4c0.5-3.3,0.2-6.5-0.7-9.8c-1.4-5-0.9-10,1.7-14.7
			c0.2-0.3,0.2-0.8,0.1-1.2c-0.6-3.6-2.6-6.4-5.7-8.4c-3.2-2-6.8-3-10.4-4c-5-1.3-9.9-3-14.2-6c-4.5-3.2-8.2-7.1-11.1-11.7
			c-0.2-0.2-0.2-0.5-0.4-0.8C32.6,23.4,32.5,23.4,32.4,23.5L32.4,23.5z M73.8,69.3c1.3-0.4,2.3-0.8,3.3-1.1c0,0.1,0.1,0.2,0.1,0.2
			c-0.6,0.5-1.2,0.9-1.8,1.4c-0.5,0.5-1.3,0.9-0.9,1.8c1.1-0.4,2.1-0.8,3.1-1.2c0.1,0.1,0.1,0.2,0.2,0.3c-1.1,0.7-2.1,1.5-2.7,2.7
			c0.1,0.1,0.1,0.2,0.2,0.2c1.3-0.6,2.6-1.2,3.8-1.8c-0.4-1.6-1-3.1-1.3-4.7c-0.7-3.6,0-6.7,3-9.2c0.2-0.2,0.4-0.5,0.4-0.8
			C81,55.5,81,53.7,80.6,52c-1.1-4.3-4-7.1-7.7-9.3c-4-2.4-8.4-3.6-12.9-4.6c-0.3-0.1-0.6-0.2-0.9-0.2c0.1-0.2,0.2-0.2,0.3-0.2
			c4.1,0.8,8.2,1.4,12.2,2.6c6.4,1.8,10.4,6.1,12,12.6c0.2,0.9,0.3,1.8,0.5,2.6c0,0.2,0.1,0.4,0.2,0.5l0.3-0.1
			c-0.1-0.6-0.2-1.1-0.2-1.7c-1.1-5.7-3.7-10.3-9.1-13c-2.7-1.4-5.5-2.1-8.5-2.7c-3.5-0.7-7-1.2-10.5-1.9c-4.5-0.9-8.8-2.5-12.5-5.3
			c-4.9-3.6-7.9-8.7-10.2-14.2c0-0.1,0-0.2,0.1-0.2c0.1-0.1,0.2-0.1,0.3-0.2c1.5,2.3,3.1,4.5,4.6,6.8c0.1-1.4-0.6-2.4-1.4-3.4
			c-1.9-2.4-4.2-4.5-5.5-7.4c0,2.4,1,4.4,1.9,6.6c-0.1,0-0.2,0.1-0.3,0.1c-0.9-1.6-1.8-3.2-2.7-4.8c1,7.5,11.5,20.2,17.9,21.7
			c-1.2-1-2.4-1.9-3.6-2.8c0.4,0,0.6,0.1,0.8,0.3c5.1,3.5,10.8,5.7,16.5,7.7c3.6,1.3,7.2,2.6,10,5.2c0,0,0.1,0,0.5,0
			c-1.2-0.9-2.1-1.8-3.2-2.5c-1-0.7-2.2-1.2-3.3-1.9c6.5,1.8,10,6.2,10.8,12.9l2,0.4c-1.5,0.5-3,0.5-3.9,1.8
			c1.1,0.1,2.1,0.1,3.1,0.2c0,0.1,0,0.2,0,0.3c-1.4,0.4-3,0.6-4.1,2c1.3,0,2.4-0.1,3.4-0.1c0,0.1,0,0.2,0,0.3
			c-0.7,0.3-1.5,0.5-2.2,0.8c-0.7,0.4-1.5,0.6-1.7,1.5c1.1-0.1,2.1-0.2,3.1-0.3c-2.1,1.3-3.2,2.2-3.2,2.6c1-0.2,2.1-0.3,3.1-0.5
			l0,0.3c-2.8,1.4-3.2,1.8-3,2.6c1-0.2,2-0.4,3-0.7c0,0.1,0.1,0.2,0.1,0.2C75.8,67.3,74.2,67.7,73.8,69.3L73.8,69.3z M85.3,81.2
			c0.2-1.7,0.3-3.1,0.4-4.6c0-0.4-0.2-0.9-0.5-1.1c-1.3-1-2.7-2-4-2.9c-0.3-0.2-0.8-0.2-1.2-0.1c-1.5,0.6-3.1,1.3-4.5,2.1
			c-0.3,0.2-0.7,0.6-0.7,1c-0.2,1.7-0.4,3.4-0.5,5.1c0,0.3,0.2,0.8,0.5,1c1.3,1,2.7,2,4.1,3c0.3,0.2,0.8,0.2,1.1,0.1
			c1.4-0.6,2.7-1.2,4-1.8C84.9,82.5,85.5,82.1,85.3,81.2L85.3,81.2z M110.9,111.3c1.3-4.8,2.6-10.5,0.9-16.3
			c-1.7-5.7-5.5-10-9.6-14.2c-0.7,1.8-0.6,1.9,0.6,3.1c5.4,4.9,8.6,10.9,8.6,18.3C111.4,105.5,111,108.8,110.9,111.3z M96,67.2
			c0,0.1,0.1,0.1,0.1,0.2c-0.2,0.2-0.4,0.3-0.6,0.5c-1.1,0.7-2.2,1.5-3.4,2.2c-0.8,0.5-1.6,1-2.4,1.6c-0.2,0.1-0.2,0.4-0.3,0.6
			c0.2,0,0.4,0,0.7,0c0.1,0,0.2-0.1,0.2-0.2c4.4-3.1,8.9-6.1,13.3-9.2c0.2-0.1,0.2-0.3,0.4-0.4c-0.1-0.1-0.1-0.2-0.2-0.2
			c-1.2,0.7-2.3,1.5-3.4,2.2c-0.1-0.1-0.1-0.2-0.2-0.2l1.7-1.5c-0.1-0.1-0.2-0.2-0.2-0.3c-1.1,0.7-2.2,1.4-3.3,2.1
			c-0.1-0.1-0.1-0.1-0.2-0.2c0.4-0.5,0.9-0.9,1.4-1.3c-0.1-0.1-0.1-0.1-0.2-0.2L96,64.7c-0.1-0.1-0.1-0.1-0.1-0.2
			c0.4-0.4,0.8-0.8,1.2-1.2l-0.2-0.2c-1.1,0.7-2.2,1.4-3.2,2.1c0-0.1-0.1-0.1-0.1-0.2c0.3-0.3,0.5-0.6,0.8-0.9
			c-0.1-0.1-0.1-0.1-0.2-0.2c-0.9,0.5-1.8,1.1-2.6,1.6c0.7,0.9,1.3,1.7,2,2.5C94.3,67.7,95.1,67.5,96,67.2L96,67.2z M96.6,89.4
			c-1.2,1.1-2.2,2-3.2,2.9c1.3,0.5,1.5,0.5,2.2-0.7C95.9,91,96.2,90.3,96.6,89.4z M85.2,84.1L85.1,84c-1.2,0.4-2.3,0.8-3.5,1.2
			c0.7,1.1,0.9,1.1,1.8,0.5C84.1,85.2,84.7,84.6,85.2,84.1L85.2,84.1z M86.9,85.5c-0.1-0.1-0.1-0.1-0.2-0.2c-1.2,0.5-2.4,1-3.6,1.4
			c0,0.1-0.1,0.2-0.1,0.3c0.5,0.1,1.1,0.5,1.4,0.3C85.4,86.9,86.2,86.1,86.9,85.5L86.9,85.5z M98.5,89.9c-0.9,0.9-1.8,1.9-2.7,2.8
			C97.3,93.6,98.3,92.1,98.5,89.9z M88.7,86.9c-0.1-0.1-0.1-0.1-0.2-0.1c-1.2,0.5-2.3,1-3.5,1.5c0.4,0.3,0.8,1.1,1.5,0.6
			C87.3,88.3,88,87.6,88.7,86.9z M92,89c-0.8,0.6-1.8,1.3-2.6,2c0.6,0.5,0.9,0.5,1.6-0.5C91.5,90,91.8,89.3,92,89z M90.3,87.9
			c-0.1,0-0.1-0.1-0.2-0.1c-1,0.6-2,1.2-3,1.8c0,0.1,0,0.2,0,0.3c0.5,0,1.1,0.3,1.4,0.1C89.1,89.4,89.7,88.7,90.3,87.9L90.3,87.9z
			 M91.2,91.6c1.3,0.7,2.7-0.4,2.7-2.2C93,90.2,92.1,90.9,91.2,91.6z M98.3,92.8c1.6,0.1,2.2-0.6,2.3-2.6
			C99.9,91.1,99.1,91.9,98.3,92.8z"/>
		<path class="st0" d="M104.7,9.2c2.1-0.7,4.2-1.4,6.3-2.1c0.5-0.2,0.8-0.3,1-0.9c0.3-0.9,1.3-1.3,2.1-0.9c0.8,0.4,1.1,1.3,0.8,2.1
			c-0.4,0.8-1.4,1.2-2.2,0.7c-0.5-0.4-1-0.3-1.5-0.1c-1.7,0.6-3.5,1.2-5.2,1.8c0.1,1.1,0.5,1.7,1.7,2c12.6,3,23.2,9.5,31.8,19.1
			c0.1,0.1,0.1,0.2,0.3,0.4c-0.3,0.1-0.6,0.2-0.8,0.3c-5.7,1.4-11.4,2.7-17,4.1c-0.7,0.2-1.3,0.1-1.9-0.2c-2.3-1.2-4.7-2.4-7-3.6
			c-0.3-0.2-0.7-0.5-0.8-0.8c-2.5-7.1-5-14.3-7.4-21.4C104.7,9.4,104.7,9.4,104.7,9.2L104.7,9.2z"/>
		<path class="st0" d="M153.4,58.2c-2.9-1.3-5.6-2.4-8.2-3.6c-0.3-0.1-0.5-0.5-0.6-0.8c-1.2-7-2.5-14-3.7-21
			c-0.1-0.4,0.2-0.9,0.5-1.2c5.2-4.8,10.5-9.5,15.8-14.3c0.4-0.4,0.7-0.8,0.7-1.4c-0.1-0.9,0.7-1.6,1.6-1.5c0.9,0.1,1.6,0.8,1.5,1.6
			c-0.1,0.9-0.8,1.6-1.8,1.5c-0.6-0.1-0.9,0.1-1.3,0.5c-5,4.6-10.1,9.1-15.1,13.7c-1.1,1-1.2,1.8-0.3,3.1c1.7,2.5,3.4,5,4.9,7.6
			c2.7,4.7,4.6,9.8,5.9,15.1C153.3,57.6,153.3,57.9,153.4,58.2L153.4,58.2z"/>
	</g>
</g>
</svg>
