<?xml version="1.0" encoding="utf-8"?>
<!-- Generator: Adobe Illustrator 27.3.1, SVG Export Plug-In . SVG Version: 6.00 Build 0)  -->
<svg version="1.1" id="Layer_1" xmlns="http://www.w3.org/2000/svg" xmlns:xlink="http://www.w3.org/1999/xlink" x="0px" y="0px"
	 viewBox="0 0 111 48" style="enable-background:new 0 0 111 48;" xml:space="preserve">
<style type="text/css">
	.st0{fill:#FFFFFF;}
	.st1{fill:#00FF91;}
</style>
<path class="st0" d="M221.9,64.5V48.2c0-0.7,0.2-1.4,0.5-1.9c0.4-0.6,0.8-1.1,1.4-1.4c0.6-0.4,1.3-0.5,2-0.5h12.4
	c0.7,0,1.4,0.2,2,0.5c0.6,0.4,1.1,0.8,1.4,1.4c0.4,0.6,0.5,1.2,0.5,1.9v16.3h-3.7v-6.8h-12.8v6.8H221.9z M225.6,54h12.8v-5.6
	c0-0.1,0-0.2-0.1-0.2c-0.1-0.1-0.2-0.1-0.3-0.1H226c-0.1,0-0.2,0-0.3,0.1c-0.1,0.1-0.1,0.1-0.1,0.2V54z"/>
<path class="st0" d="M252.7,64.5v-7.6l-9.3-12.6h4.4l6.8,8.6l6.7-8.6h4.5l-9.4,12.7v7.6H252.7z"/>
<path class="st0" d="M267.5,64.5V44.3h16.3c0.7,0,1.4,0.2,2,0.5c0.6,0.4,1.1,0.8,1.4,1.4c0.4,0.6,0.5,1.2,0.5,1.9v12.4
	c0,0.7-0.2,1.4-0.5,2c-0.4,0.6-0.8,1-1.4,1.4c-0.6,0.4-1.3,0.5-2,0.5H267.5z M271.5,60.8h12.1c0.1,0,0.2,0,0.3-0.1
	c0.1-0.1,0.1-0.2,0.1-0.3V48.3c0-0.1,0-0.2-0.1-0.2c-0.1-0.1-0.2-0.1-0.3-0.1h-12.1c-0.1,0-0.2,0-0.3,0.1c-0.1,0.1-0.1,0.1-0.1,0.2
	v12.1c0,0.1,0,0.2,0.1,0.3C271.3,60.7,271.4,60.8,271.5,60.8z"/>
<path class="st0" d="M290.9,64.5V44.3h18.6V48h-14.9v4.5h12v3.8h-12v4.5h14.9v3.7H290.9z"/>
<path class="st0" d="M312.4,64.5V44.3h4.1L328.9,59V44.3h3.7v20.2h-4.1l-12.4-14.8v14.8H312.4z"/>
<g>
	<g>
		
			<image style="overflow:visible;opacity:0.46;" width="49" height="52" xlink:href="45C63DCF.png"  transform="matrix(1 0 0 1 38.6836 -0.5622)">
		</image>
		<g>
			<path class="st1" d="M70.4,11.4c0,0.1,0,0.2,0.1,0.3c0.3,1.8,0.6,3.7,1,5.5c0,0.2,0,0.3-0.1,0.5c-0.7,1.7-1.3,3.5-2,5.2
				c-0.1,0.1,0,0.3,0,0.5c0.3,0.8,0.6,1.6,0.9,2.4c0,0.1,0,0.2,0,0.3c-0.1,0.3,0,0.5,0.2,0.6c0.2,0.1,0.5,0,0.6-0.2
				c0.1-0.2,0-0.5-0.2-0.6c-0.1-0.1-0.2-0.1-0.2-0.2c-0.3-0.8-0.6-1.5-0.9-2.3c0-0.1,0-0.2,0-0.3c0.7-1.7,1.3-3.4,2-5.2
				c0,0,0,0,0.1-0.1c0.1,0.1,0.3,0.1,0.4,0.2c1,0.4,2,0.9,3,1.3c0.1,0,0.2,0,0.3,0c0.3-0.1,0.5,0,0.6,0.2c0.1,0.2,0,0.5-0.2,0.6
				c-0.2,0.1-0.5,0-0.6-0.3c0-0.1-0.1-0.2-0.2-0.2c-0.2-0.1-0.4-0.2-0.7-0.3c0.7,4.9-0.3,9.3-3.3,13.3c-1.8,2.3-4,4-6.7,5.2
				c-0.2-0.6-0.2-1.2-0.2-1.8c0-1.1,0.3-2.2,0.6-3.3c0.3-1.2,0.6-2.4,0.5-3.7c0-1.2-0.4-2.4-1.2-3.3c-0.8-1-1.6-2-2.4-3.1
				c0,0,0,0,0,0c0.4-0.6,0.8-1.2,1.1-1.8c0.3-0.5,0.5-1,0.7-1.6c0.3-0.8-0.2-1.6-1.1-1.6c-1.2-0.1-2.4,0-3.5,0.3
				c-0.1,0-0.2,0.1-0.3,0.1c-0.3-0.7-0.6-1.3-0.9-2c-0.2-0.4-0.5-0.9-0.7-1.3c-0.9-1.7-2.4-2.8-4.2-3.2c-1.2-0.3-2.5-0.5-3.8-0.7
				c-0.8-0.2-1.6-0.4-2.4-0.8c-0.1-0.1-0.2-0.1-0.4-0.2c0.7-0.5,1.3-1,1.9-1.4c3-2.1,6.4-3,10.1-2.9c0.7,0,1.4,0.1,2,0.2
				c0.1,0,0.2,0,0.3,0.2c0.6,1.8,1.2,3.6,1.8,5.3c0,0,0,0.1,0,0.1c-0.1,0-0.2,0.1-0.3,0.1c-1,0.4-2.1,0.7-3.1,1.1
				C59,12.3,59,12.3,59,12.6c0.3,0.9,0.5,1.8,0.8,2.7c0,0.1,0,0.2,0,0.4c-0.1,0.2,0,0.5,0.2,0.6c0.2,0.1,0.4,0,0.6-0.1
				c0.1-0.2,0.1-0.5-0.1-0.6c-0.2-0.1-0.2-0.2-0.3-0.4c-0.3-0.9-0.5-1.8-0.8-2.6c0,0,0.1,0,0.1-0.1c1.1-0.4,2.2-0.7,3.3-1.1
				c0.1,0,0.2,0,0.3,0c0.7,0.3,1.3,0.7,1.9,1c0.2,0.1,0.4,0.1,0.7,0.1c1.5-0.4,3-0.7,4.5-1.1C70.3,11.4,70.4,11.4,70.4,11.4z"/>
		</g>
	</g>
	<g>
		
			<image style="overflow:visible;opacity:0.46;" width="52" height="58" xlink:href="45C63DCD.png"  transform="matrix(1 0 0 1 26.6836 -0.5622)">
		</image>
		<g>
			<path class="st1" d="M41.3,8.8c-1.1,7.6-2.1,15.3-3.2,22.9c0,0,0,0,0,0c0.2-2.7,0.5-5.3,0.7-8c0.3-3.1,0.5-6.3,0.8-9.4
				c0.2-2.7,0.5-5.4,0.7-8.1c0-0.4,0.1-0.8,0.3-1.2c0.1-0.4,0.5-0.6,0.9-0.6c0.1,0,0.3,0.1,0.3,0.2c0,0.1,0,0.3-0.1,0.4
				c-0.3,0.2-0.2,0.4-0.1,0.6C41.8,6.2,42,6.6,42.3,7c0.2,0.3,0.5,0.6,0.7,0.9c0.3,0.4,0.5,0.8,0.3,1.4c0,0.1,0,0.2,0.1,0.2
				c0.6,0.9,1.5,1.5,2.5,1.9c1.1,0.5,2.4,0.7,3.6,0.9c1.1,0.2,2.2,0.4,3.2,0.8c1.1,0.4,1.9,1.1,2.5,2.2c0.6,1.2,1.2,2.3,1.7,3.5
				c0.1,0.1,0.1,0.3,0.2,0.5c0,0,0,0-0.1,0c-0.1-0.1-0.1-0.1-0.2-0.2c-0.3-0.3-0.7-0.5-1.1-0.6c-0.8-0.2-1.5,0.2-1.7,1
				c-0.2,0.8,0,1.5,0.3,2.2c0,0,0,0.1,0.1,0.1c0.3,0.2,0.6,0.4,1,0.7c0.1,0.1,0.2,0.1,0.3,0c0.1-0.1,0.3-0.2,0.4-0.3
				c0.1,0,0.1-0.1,0.1-0.2c0.1-0.1,0.2-0.3,0.3-0.4c0.3-0.2,0.5-0.4,0.9-0.6c-0.2-0.1-0.3-0.2-0.5-0.3c-0.2-0.1-0.5,0-0.7-0.1
				c-0.1,0-0.2-0.1-0.3-0.1c0.1-0.1,0.1-0.2,0.2-0.3c1.4-0.8,2.8-1.3,4.4-1.3c0.3,0,0.6,0,0.9,0c0.3,0,0.3,0.1,0.2,0.4
				c-0.6,1.8-1.7,3.3-3.3,4.4c-0.1,0.1-0.2,0-0.3,0.1c0-0.1,0-0.2,0-0.3c0.1-0.3,0.2-0.5,0.2-0.8c0-0.1,0-0.2-0.1-0.4
				c-0.3,0.2-0.6,0.4-0.9,0.6c-0.1,0.1-0.3,0.1-0.5,0.1c-0.1,0-0.2,0-0.3,0.1c-0.3,0.1-0.4,0.4-0.5,0.7c-0.1,0.5,0.1,0.9,0.4,1.2
				c0.4,0.4,0.9,0.7,1.4,0.9c1.1,0.4,2.1-0.3,2.1-1.5c0-0.4-0.1-0.8-0.1-1.2c0.1,0.1,0.1,0.1,0.2,0.2c1.1,1.1,2.1,2.4,2.9,3.7
				c0.7,1.1,0.8,2.3,0.6,3.5c-0.2,1-0.4,2-0.7,3c-0.3,1.4-0.6,2.9-0.3,4.4c0.1,0.6,0.3,1.2,0.7,1.8c0,0.1,0.1,0.2,0.2,0.2
				c0.4,0,0.7,0.3,0.9,0.6c0.2,0.4,0.4,0.8,0.6,1.1c0.2,0.4,0.5,0.9,0.8,1.2c0.2,0.3,0.3,0.3,0.7,0.2c0.1,0,0.3,0,0.3,0.1
				c0.1,0.1,0.1,0.2,0.1,0.3c-0.1,0.4-0.5,0.7-0.9,0.7c-0.3,0-0.5-0.1-0.8-0.2c-2.3-0.8-4.6-1.6-6.9-2.4c-3.4-1.2-6.9-2.4-10.3-3.6
				c-2.4-0.8-4.8-1.7-7.2-2.5c-0.1,0-0.2-0.1-0.4-0.2c7.5,2.2,14.9,4.4,22.4,6.7c-0.1-0.2-0.2-0.2-0.2-0.3c-1.2-1.9-1.9-3.9-1.8-6.2
				c0.1-1.1,0.3-2.1,0.4-3.2c0.1-0.9,0.1-1.8-0.2-2.6c-0.3-0.7-0.7-1.2-1.3-1.5c-0.1,0-0.2-0.1-0.2-0.1c-1.5,0.1-2.8-0.3-3.9-1.2
				c-0.4-0.3-0.7-0.6-1-0.9c-0.1-0.1-0.2-0.1-0.3-0.1c-0.1,0-0.2,0-0.3,0c0,0,0,0-0.1,0c-0.2-0.2-0.5-0.4-0.7-0.4
				c-0.2,0-0.5,0.3-0.7,0.4c-4.4,2.8-8.8,5.7-13.2,8.5c-0.2,0.1-0.3,0.2-0.2,0.5c0.1,0.3-0.1,0.4-0.3,0.6c-0.8,0.7-1.7,1.4-2.5,2
				c-0.1,0.1-0.2,0.1-0.3,0.1c0-0.1-0.1-0.3-0.1-0.4c0.1-0.4,0.2-0.9,0.2-1.4c-0.4-0.1-0.7-0.1-1.1-0.2c-0.2,0-0.4,0-0.4-0.2
				c0-0.2,0.2-0.3,0.4-0.3c0.9-0.5,1.9-1,2.8-1.5c0.2-0.1,0.4-0.1,0.6,0c0.2,0.2,0.3,0.1,0.5,0c4.4-2.9,8.8-5.7,13.2-8.6
				c0.3-0.2,0.3-0.4,0.4-0.6c0.1-0.9,0.1-1.8-0.2-2.7c-0.4-1.4-0.3-2.7,0.5-4c0-0.1,0.1-0.2,0-0.3c-0.2-1-0.7-1.7-1.5-2.3
				c-0.9-0.6-1.9-0.8-2.8-1.1c-1.4-0.4-2.7-0.8-3.9-1.6c-1.2-0.9-2.2-1.9-3-3.2C41.4,8.9,41.4,8.9,41.3,8.8
				C41.4,8.8,41.3,8.8,41.3,8.8z M52.6,21.3c0.3-0.1,0.6-0.2,0.9-0.3c0,0,0,0,0,0.1c-0.2,0.1-0.3,0.2-0.5,0.4
				c-0.1,0.1-0.3,0.2-0.2,0.5c0.3-0.1,0.6-0.2,0.8-0.3c0,0,0,0.1,0,0.1c-0.3,0.2-0.6,0.4-0.7,0.7c0,0,0,0,0.1,0.1
				c0.4-0.2,0.7-0.3,1-0.5c-0.1-0.4-0.3-0.8-0.3-1.3c-0.2-1,0-1.8,0.8-2.5c0.1,0,0.1-0.1,0.1-0.2c0-0.5,0-1-0.2-1.4
				c-0.3-1.2-1.1-1.9-2.1-2.5c-1.1-0.6-2.3-1-3.5-1.3c-0.1,0-0.2,0-0.2-0.1c0,0,0.1-0.1,0.1-0.1c1.1,0.2,2.2,0.4,3.3,0.7
				c1.7,0.5,2.8,1.7,3.3,3.4c0.1,0.2,0.1,0.5,0.1,0.7c0,0.1,0,0.1,0.1,0.1c0,0,0.1,0,0.1,0c0-0.2,0-0.3-0.1-0.5
				c-0.3-1.6-1-2.8-2.5-3.5c-0.7-0.4-1.5-0.6-2.3-0.7c-1-0.2-1.9-0.3-2.9-0.5c-1.2-0.3-2.4-0.7-3.4-1.4c-1.3-1-2.1-2.4-2.8-3.9
				c0,0,0,0,0-0.1c0,0,0.1,0,0.1,0c0.4,0.6,0.8,1.2,1.3,1.9c0-0.4-0.2-0.7-0.4-0.9c-0.5-0.7-1.1-1.2-1.5-2c0,0.6,0.3,1.2,0.5,1.8
				c0,0-0.1,0-0.1,0c-0.2-0.4-0.5-0.9-0.7-1.3c0.3,2.1,3.1,5.5,4.9,5.9c-0.3-0.3-0.7-0.5-1-0.8c0.1,0,0.2,0,0.2,0.1
				c1.4,1,2.9,1.5,4.5,2.1c1,0.4,1.9,0.7,2.7,1.4c0,0,0,0,0.1,0c-0.3-0.3-0.6-0.5-0.9-0.7c-0.3-0.2-0.6-0.3-0.9-0.5
				c1.8,0.5,2.7,1.7,2.9,3.5c0.2,0,0.3,0.1,0.5,0.1c-0.4,0.1-0.8,0.1-1.1,0.5c0.3,0,0.6,0,0.8,0.1c0,0,0,0,0,0.1
				c-0.4,0.1-0.8,0.2-1.1,0.6c0.3,0,0.6,0,0.9,0c0,0,0,0,0,0.1c-0.2,0.1-0.4,0.1-0.6,0.2c-0.2,0.1-0.4,0.2-0.5,0.4
				c0.3,0,0.6,0,0.8-0.1c-0.9,0.5-0.9,0.5-0.9,0.7c0.3,0,0.6-0.1,0.8-0.1c0,0,0,0,0,0.1c-0.8,0.4-0.9,0.5-0.8,0.7
				c0.3-0.1,0.5-0.1,0.8-0.2c0,0,0,0,0,0.1C53.1,20.8,52.7,20.9,52.6,21.3z M55.7,24.6c0-0.5,0.1-0.8,0.1-1.2c0-0.1-0.1-0.2-0.1-0.3
				c-0.4-0.3-0.7-0.5-1.1-0.8c-0.1-0.1-0.2-0.1-0.3,0c-0.4,0.2-0.8,0.4-1.2,0.6c-0.1,0-0.2,0.2-0.2,0.3c-0.1,0.5-0.1,0.9-0.1,1.4
				c0,0.1,0.1,0.2,0.1,0.3c0.4,0.3,0.7,0.5,1.1,0.8c0.1,0.1,0.2,0.1,0.3,0c0.4-0.2,0.7-0.3,1.1-0.5C55.6,24.9,55.7,24.8,55.7,24.6z
				 M62.6,32.8c0.3-1.3,0.7-2.9,0.2-4.4c-0.5-1.6-1.5-2.7-2.6-3.9c-0.2,0.5-0.2,0.5,0.2,0.8c1.5,1.3,2.3,3,2.4,5
				C62.8,31.2,62.7,32.1,62.6,32.8z M58.6,20.7C58.6,20.8,58.6,20.8,58.6,20.7c0,0.1-0.1,0.1-0.1,0.2c-0.3,0.2-0.6,0.4-0.9,0.6
				c-0.2,0.1-0.4,0.3-0.7,0.4c0,0-0.1,0.1-0.1,0.2c0.1,0,0.1,0,0.2,0c0,0,0,0,0.1,0c1.2-0.8,2.4-1.7,3.6-2.5c0,0,0.1-0.1,0.1-0.1
				c0,0,0,0,0-0.1c-0.3,0.2-0.6,0.4-0.9,0.6c0,0,0,0,0-0.1c0.1-0.1,0.3-0.3,0.4-0.4c0,0,0-0.1-0.1-0.1c-0.3,0.2-0.6,0.4-0.9,0.6
				c0,0,0,0,0-0.1c0.1-0.1,0.2-0.2,0.4-0.4c0,0,0,0,0-0.1c-0.3,0.2-0.6,0.4-0.9,0.6c0,0,0,0,0-0.1c0.1-0.1,0.2-0.2,0.3-0.3
				c0,0,0,0,0-0.1c-0.3,0.2-0.6,0.4-0.9,0.6c0,0,0,0,0,0c0.1-0.1,0.1-0.2,0.2-0.3c0,0,0,0,0-0.1c-0.2,0.1-0.5,0.3-0.7,0.4
				c0.2,0.2,0.4,0.5,0.6,0.7C58.1,20.9,58.4,20.8,58.6,20.7z M58.8,26.8c-0.3,0.3-0.6,0.5-0.9,0.8c0.4,0.1,0.4,0.1,0.6-0.2
				C58.6,27.2,58.7,27,58.8,26.8z M55.7,25.3C55.7,25.3,55.7,25.3,55.7,25.3c-0.4,0.1-0.7,0.2-1,0.3c0.2,0.3,0.2,0.3,0.5,0.1
				C55.4,25.6,55.5,25.5,55.7,25.3z M56.1,25.7C56.1,25.7,56.1,25.7,56.1,25.7c-0.4,0.1-0.7,0.2-1,0.4c0,0,0,0,0,0.1
				c0.1,0,0.3,0.1,0.4,0.1C55.7,26.1,55.9,25.9,56.1,25.7z M59.3,26.9c-0.2,0.3-0.5,0.5-0.7,0.8C59,27.9,59.2,27.5,59.3,26.9z
				 M56.6,26.1C56.6,26.1,56.6,26.1,56.6,26.1c-0.4,0.1-0.7,0.2-1,0.4c0.1,0.1,0.2,0.3,0.4,0.2C56.2,26.5,56.4,26.3,56.6,26.1z
				 M57.5,26.7c-0.2,0.2-0.5,0.4-0.7,0.5c0.2,0.1,0.2,0.1,0.4-0.1C57.4,26.9,57.5,26.8,57.5,26.7z M57,26.4C57,26.4,57,26.4,57,26.4
				c-0.3,0.1-0.6,0.3-0.9,0.5c0,0,0,0.1,0,0.1c0.1,0,0.3,0.1,0.4,0C56.7,26.8,56.9,26.6,57,26.4z M57.3,27.4
				c0.3,0.2,0.7-0.1,0.7-0.6C57.8,27,57.5,27.2,57.3,27.4z M59.2,27.7c0.4,0,0.6-0.2,0.6-0.7C59.7,27.2,59.5,27.5,59.2,27.7z"/>
		</g>
	</g>
	<g>
		
			<image style="overflow:visible;opacity:0.46;" width="28" height="27" xlink:href="45C63DD3.png"  transform="matrix(1 0 0 1 53.6836 -1.5622)">
		</image>
		<g>
			<path class="st1" d="M61,4.9c0.6-0.2,1.1-0.4,1.7-0.6c0.1,0,0.2-0.1,0.3-0.2c0.1-0.2,0.3-0.3,0.6-0.2c0.2,0.1,0.3,0.4,0.2,0.6
				c-0.1,0.2-0.4,0.3-0.6,0.2c-0.1-0.1-0.3-0.1-0.4,0c-0.5,0.2-0.9,0.3-1.4,0.5c0,0.3,0.1,0.5,0.5,0.5c3.4,0.8,6.3,2.6,8.7,5.2
				c0,0,0,0.1,0.1,0.1c-0.1,0-0.2,0.1-0.2,0.1c-1.5,0.4-3.1,0.7-4.6,1.1c-0.2,0-0.3,0-0.5-0.1c-0.6-0.3-1.3-0.7-1.9-1
				c-0.1,0-0.2-0.1-0.2-0.2C62.3,8.9,61.7,7,61,4.9C61,5,61,5,61,4.9z"/>
		</g>
	</g>
	<g>
		
			<image style="overflow:visible;opacity:0.46;" width="24" height="31" xlink:href="45C63DD5.png"  transform="matrix(1 0 0 1 63.6836 0.4378)">
		</image>
		<g>
			<path class="st1" d="M74.2,18.3c-0.8-0.3-1.5-0.7-2.2-1c-0.1,0-0.1-0.1-0.2-0.2c-0.3-1.9-0.7-3.8-1-5.7c0-0.1,0.1-0.2,0.1-0.3
				c1.4-1.3,2.9-2.6,4.3-3.9c0.1-0.1,0.2-0.2,0.2-0.4c0-0.2,0.2-0.4,0.4-0.4c0.2,0,0.4,0.2,0.4,0.4c0,0.3-0.2,0.4-0.5,0.4
				c-0.2,0-0.3,0-0.4,0.1c-1.4,1.2-2.7,2.5-4.1,3.7c-0.3,0.3-0.3,0.5-0.1,0.8c0.5,0.7,0.9,1.4,1.3,2.1c0.7,1.3,1.2,2.7,1.6,4.1
				C74.2,18.1,74.2,18.2,74.2,18.3z"/>
		</g>
	</g>
</g>
</svg>
