<?xml version="1.0" encoding="UTF-8"?>
<svg id="Layer_2" data-name="Layer 2" xmlns="http://www.w3.org/2000/svg" xmlns:xlink="http://www.w3.org/1999/xlink" viewBox="0 0 173 167">
  <defs>
    <style>
      .cls-1 {
        filter: url(#drop-shadow-4);
      }

      .cls-1, .cls-2, .cls-3, .cls-4 {
        fill: #00ff91;
      }

      .cls-2 {
        filter: url(#drop-shadow-3);
      }

      .cls-3 {
        filter: url(#drop-shadow-1);
      }

      .cls-4 {
        filter: url(#drop-shadow-2);
      }
    </style>
    <filter id="drop-shadow-1" filterUnits="userSpaceOnUse">
      <feOffset dx="2" dy="4"/>
      <feGaussianBlur result="blur" stdDeviation="3"/>
      <feFlood flood-color="#000" flood-opacity=".46"/>
      <feComposite in2="blur" operator="in"/>
      <feComposite in="SourceGraphic"/>
    </filter>
    <filter id="drop-shadow-2" filterUnits="userSpaceOnUse">
      <feOffset dx="2" dy="4"/>
      <feGaussianBlur result="blur-2" stdDeviation="3"/>
      <feFlood flood-color="#000" flood-opacity=".46"/>
      <feComposite in2="blur-2" operator="in"/>
      <feComposite in="SourceGraphic"/>
    </filter>
    <filter id="drop-shadow-3" filterUnits="userSpaceOnUse">
      <feOffset dx="2" dy="4"/>
      <feGaussianBlur result="blur-3" stdDeviation="3"/>
      <feFlood flood-color="#000" flood-opacity=".46"/>
      <feComposite in2="blur-3" operator="in"/>
      <feComposite in="SourceGraphic"/>
    </filter>
    <filter id="drop-shadow-4" filterUnits="userSpaceOnUse">
      <feOffset dx="2" dy="4"/>
      <feGaussianBlur result="blur-4" stdDeviation="3"/>
      <feFlood flood-color="#000" flood-opacity=".46"/>
      <feComposite in2="blur-4" operator="in"/>
      <feComposite in="SourceGraphic"/>
    </filter>
  </defs>
  <g id="Layer_1-2" data-name="Layer 1">
    <g>
      <path class="cls-3" d="m139.52,32.79c.08.36.16.66.21.96,1.18,6.73,2.37,13.46,3.51,20.19.1.56.02,1.22-.19,1.75-2.43,6.39-4.91,12.75-7.32,19.14-.19.51-.17,1.21.02,1.72,1.05,2.92,2.19,5.8,3.25,8.71.13.37.11.85,0,1.24-.27.95.04,1.81.89,2.15.74.3,1.66-.07,2.02-.81.39-.8.02-1.67-.82-2.18-.32-.19-.64-.51-.77-.85-1.12-2.82-2.2-5.66-3.25-8.5-.13-.35-.15-.84-.02-1.18,2.41-6.33,4.84-12.64,7.28-18.96.03-.09.1-.16.22-.32.51.21,1.03.41,1.54.64,3.62,1.59,7.24,3.2,10.88,4.77.32.14.79.1,1.12-.03.96-.38,1.88-.09,2.24.8.33.81-.08,1.75-.89,2.05-.89.33-1.74-.14-2.12-1.1-.12-.31-.38-.66-.66-.81-.78-.41-1.61-.72-2.55-1.13,2.72,18-1.03,34.28-12.02,48.71-6.46,8.48-14.68,14.76-24.54,19.1-.58-2.19-.71-4.34-.63-6.51.15-4.15,1.23-8.14,2.24-12.13,1.12-4.4,2.14-8.82,1.98-13.41-.16-4.54-1.52-8.68-4.27-12.29-2.88-3.79-5.86-7.49-8.8-11.23-.06-.07-.09-.16-.08-.13,1.42-2.2,2.92-4.27,4.14-6.5,1.01-1.83,1.81-3.81,2.51-5.79,1.04-2.97-.84-5.73-3.99-6.04-4.4-.43-8.73-.03-13,1.14-.37.1-.73.2-1.12.31-1.14-2.44-2.23-4.84-3.39-7.22-.8-1.64-1.68-3.23-2.52-4.84-3.32-6.37-8.7-10.12-15.53-11.78-4.56-1.11-9.21-1.81-13.81-2.75-3.01-.62-5.94-1.53-8.65-3.02-.36-.2-.71-.41-1.3-.76,2.43-1.84,4.66-3.71,7.06-5.32,11.19-7.53,23.57-11.03,37.04-10.55,2.52.09,5.02.47,7.53.72.49.05.88.17,1.07.75,2.24,6.56,4.51,13.1,6.77,19.65.03.09.03.19.06.36-.32.11-.64.24-.96.35-3.81,1.29-7.62,2.57-11.44,3.86-1.15.39-1.19.47-.84,1.66.99,3.34,1.99,6.67,2.94,10.02.11.4.04.92-.12,1.31-.33.84-.09,1.73.68,2.15.74.4,1.65.16,2.11-.54.47-.72.31-1.74-.5-2.16-.6-.31-.78-.77-.94-1.32-.95-3.24-1.91-6.48-2.86-9.72.13-.1.19-.18.27-.2,3.99-1.36,7.98-2.73,11.98-4.05.34-.11.82-.03,1.15.14,2.4,1.19,4.8,2.4,7.16,3.67.84.45,1.6.55,2.54.32,5.51-1.37,11.04-2.68,16.57-4.01.27-.07.55-.12.9-.2Z"/>
      <path class="cls-4" d="m32.41,23.45c-3.89,28.04-7.78,56.08-11.67,84.13-.04,0-.07,0-.11-.01.83-9.75,1.66-19.51,2.48-29.26.97-11.49,1.94-22.98,2.91-34.47.84-9.9,1.66-19.8,2.55-29.69.13-1.48.48-2.97.96-4.38.49-1.45,1.82-2.2,3.33-2.04.43.05,1.04.41,1.15.76.13.4-.05,1.16-.37,1.4-.94.71-.91,1.57-.44,2.37.88,1.51,1.88,2.95,2.91,4.36.83,1.13,1.84,2.13,2.67,3.26,1.09,1.48,1.82,3.08,1.18,5.01-.08.25.14.66.33.92,2.35,3.24,5.5,5.46,9.11,7.11,4.2,1.92,8.7,2.72,13.21,3.47,4.03.67,8.07,1.31,11.88,2.91,3.91,1.63,7.06,4.16,9.02,7.94,2.2,4.25,4.23,8.59,6.31,12.9.25.53.38,1.11.56,1.67-.08.05-.16.11-.23.16-.25-.21-.5-.4-.74-.62-1.17-1.09-2.51-1.87-4.07-2.23-3.03-.69-5.34.68-6.12,3.7-.72,2.8.09,5.44,1.12,8.02.04.11.14.21.24.28,1.18.82,2.37,1.61,3.54,2.44.43.31.76.36,1.19.03.48-.37,1.03-.64,1.51-1.02.22-.17.32-.49.49-.74.35-.53.61-1.19,1.09-1.57.94-.75,2-1.35,3.28-2.18-.68-.42-1.15-.87-1.7-1.01-.82-.21-1.71-.16-2.55-.31-.39-.07-.74-.32-1.11-.49.23-.34.37-.81.69-1,5.01-3.07,10.45-4.72,16.34-4.82,1.15-.02,2.3.05,3.45.11.96.05,1.2.41.9,1.3-2.32,6.74-6.41,12.15-12.26,16.22-.32.22-.84.15-1.27.22.01-.41-.04-.83.05-1.22.23-.96.59-1.88.76-2.85.07-.41-.18-.88-.32-1.48-1.24.8-2.28,1.55-3.39,2.14-.51.27-1.19.19-1.79.31-.4.08-.81.18-1.19.34-1.15.5-1.56,1.35-1.76,2.64-.31,1.93.19,3.27,1.65,4.5,1.58,1.32,3.12,2.63,5.1,3.32,4.15,1.45,7.69-1.02,7.62-5.39-.02-1.38-.34-2.76-.55-4.32.29.24.54.4.74.61,4.06,4.15,7.55,8.76,10.63,13.66,2.47,3.92,2.83,8.33,2.1,12.77-.61,3.68-1.53,7.31-2.39,10.94-1.26,5.28-2.17,10.58-1.17,16.02.43,2.34,1.2,4.57,2.45,6.61.17.28.53.6.83.64,1.53.18,2.63,1.04,3.4,2.26.83,1.32,1.46,2.76,2.23,4.12.88,1.55,1.74,3.12,2.78,4.57.88,1.23,1.27,1.19,2.75.76.37-.11.97-.02,1.22.23.28.28.44.87.36,1.27-.3,1.58-1.74,2.64-3.39,2.46-.94-.1-1.88-.37-2.78-.69-8.4-2.96-16.79-5.96-25.19-8.92-12.59-4.43-25.18-8.85-37.78-13.27-8.8-3.09-17.6-6.17-26.39-9.26-.45-.16-.89-.33-1.31-.61,27.38,8.12,54.75,16.25,82.41,24.46-.36-.55-.57-.89-.79-1.22-4.49-6.94-7-14.49-6.58-22.81.2-3.88.92-7.73,1.34-11.61.35-3.29.37-6.57-.87-9.73-.94-2.4-2.57-4.24-4.71-5.64-.25-.16-.59-.28-.88-.25-5.42.54-10.13-1.26-14.38-4.44-1.33-.99-2.55-2.13-3.76-3.25-.42-.39-.72-.45-1.25-.26-.37.13-.85-.05-1.28-.11-.08-.01-.16-.11-.24-.16-.87-.58-1.73-1.58-2.62-1.61-.85-.03-1.74.93-2.6,1.49-16.1,10.45-32.2,20.91-48.32,31.35-.69.45-1,.91-.8,1.71.26,1-.19,1.64-.98,2.26-3.08,2.44-6.09,4.96-9.16,7.42-.33.27-.83.33-1.25.48-.08-.46-.29-.94-.23-1.38.24-1.64.56-3.27.89-5.11-1.37-.24-2.75-.45-4.11-.75-.61-.13-1.52.06-1.65-.82-.12-.88.82-.96,1.36-1.25,3.39-1.86,6.81-3.66,10.18-5.54.85-.48,1.54-.53,2.23.15.67.66,1.25.52,2,.03,16.19-10.55,32.4-21.08,48.62-31.58.94-.61,1.24-1.3,1.4-2.36.51-3.33.22-6.51-.67-9.8-1.36-5.02-.94-10.01,1.67-14.67.18-.32.2-.8.13-1.18-.63-3.64-2.59-6.4-5.69-8.37-3.2-2.03-6.81-3.05-10.42-4.01-5.03-1.33-9.89-3-14.19-6.05-4.49-3.18-8.2-7.1-11.13-11.74-.15-.23-.24-.5-.36-.76-.11.03-.21.07-.32.1Zm41.37,45.84c1.27-.44,2.29-.79,3.31-1.14.03.08.06.16.1.25-.59.46-1.24.87-1.76,1.4-.47.48-1.28.89-.91,1.79,1.08-.42,2.08-.8,3.08-1.19.05.1.11.19.16.29-1.11.72-2.11,1.52-2.72,2.67.07.08.14.17.2.25,1.29-.59,2.58-1.18,3.83-1.75-.45-1.61-.98-3.12-1.27-4.67-.67-3.56.02-6.73,2.98-9.15.21-.17.4-.54.37-.8-.14-1.74-.15-3.53-.56-5.22-1.05-4.28-3.99-7.1-7.65-9.27-4.01-2.37-8.43-3.62-12.94-4.61-.29-.06-.58-.15-.87-.23.12-.17.24-.23.33-.21,4.06.83,8.19,1.43,12.17,2.57,6.37,1.81,10.42,6.09,12.01,12.58.21.87.35,1.75.53,2.63.04.19.14.36.22.54l.31-.07c-.08-.56-.15-1.12-.25-1.68-1.05-5.7-3.73-10.28-9.06-13.01-2.67-1.36-5.54-2.14-8.46-2.71-3.51-.68-7.05-1.21-10.55-1.94-4.51-.94-8.78-2.53-12.52-5.29-4.93-3.63-7.9-8.69-10.23-14.2-.02-.06.05-.16.08-.24.09-.06.18-.11.28-.17,1.53,2.27,3.07,4.54,4.6,6.81.11-1.39-.58-2.42-1.36-3.38-1.93-2.4-4.22-4.53-5.55-7.42.02,2.36,1,4.44,1.89,6.55-.11.05-.22.1-.34.15-.88-1.6-1.76-3.2-2.66-4.84,1.05,7.54,11.52,20.23,17.86,21.69-1.21-.95-2.43-1.9-3.64-2.84.36-.03.6.1.83.26,5.06,3.51,10.76,5.66,16.47,7.74,3.59,1.31,7.15,2.58,10.03,5.21.03.03.11-.01.46-.05-1.15-.94-2.1-1.82-3.16-2.54-1.04-.71-2.19-1.25-3.29-1.87,6.5,1.84,10.02,6.19,10.81,12.87l2,.36c-1.48.55-2.96.55-3.89,1.83,1.12.07,2.09.13,3.07.2,0,.09.01.18.02.27-1.45.43-3.04.61-4.1,2.02,1.28-.04,2.36-.07,3.44-.1,0,.09.02.18.02.26-.73.28-1.49.49-2.17.85-.67.36-1.53.6-1.7,1.53,1.1-.09,2.1-.18,3.11-.26q-3.21,1.99-3.16,2.59c1.03-.16,2.07-.33,3.1-.49l.04.27c-2.78,1.43-3.18,1.78-3.02,2.57,1-.22,2-.45,3.01-.67.03.08.06.16.09.24-1.03.83-2.58,1.14-3.02,2.79Zm11.53,11.91c.16-1.66.34-3.12.41-4.58.02-.36-.21-.86-.5-1.08-1.31-1.02-2.66-1.99-4.04-2.9-.3-.2-.85-.25-1.18-.11-1.54.63-3.05,1.31-4.53,2.06-.32.16-.65.61-.7.97-.23,1.68-.39,3.36-.51,5.05-.02.33.2.79.47,1,1.34,1.03,2.72,2.02,4.12,2.96.28.18.79.23,1.1.11,1.36-.55,2.67-1.23,4.03-1.78.89-.36,1.53-.79,1.33-1.68Zm25.55,30.15c1.27-4.85,2.62-10.48.91-16.29-1.69-5.73-5.48-10.04-9.6-14.22-.65,1.8-.63,1.95.58,3.06,5.4,4.92,8.56,10.94,8.64,18.32.04,3.29-.37,6.59-.53,9.13Zm-14.83-44.16c.03.07.06.13.09.2-.21.16-.41.34-.64.48-1.12.74-2.24,1.47-3.37,2.2-.8.52-1.62,1.03-2.4,1.58-.15.11-.19.39-.27.59.22,0,.44,0,.65-.04.09-.01.16-.09.24-.15,4.43-3.07,8.87-6.14,13.3-9.21.15-.1.25-.28.37-.42-.06-.08-.12-.16-.18-.24-1.15.73-2.29,1.46-3.44,2.2-.06-.08-.12-.15-.18-.23l1.65-1.54c-.08-.11-.16-.22-.24-.34-1.1.7-2.2,1.4-3.3,2.1-.05-.07-.11-.14-.16-.21.45-.45.91-.9,1.36-1.35-.06-.07-.12-.14-.18-.2l-3.3,2.1c-.05-.06-.09-.13-.14-.19.39-.41.79-.82,1.18-1.23l-.15-.2c-1.08.68-2.17,1.36-3.25,2.05-.04-.06-.08-.12-.12-.18.27-.31.54-.62.82-.93-.05-.07-.11-.13-.16-.2-.9.54-1.8,1.09-2.61,1.58.7.88,1.32,1.66,2.02,2.54.67-.21,1.53-.48,2.39-.76Zm.55,22.25c-1.23,1.12-2.21,2.02-3.2,2.91,1.31.51,1.5.48,2.16-.66.37-.65.63-1.36,1.04-2.25Zm-11.34-5.33l-.12-.14c-1.18.4-2.35.79-3.52,1.18.68,1.05.88,1.13,1.85.46.64-.44,1.2-1,1.79-1.51Zm1.7,1.39c-.05-.05-.1-.1-.15-.15-1.2.48-2.39.96-3.59,1.44-.02.09-.05.18-.07.28.48.11,1.11.48,1.42.3.86-.5,1.6-1.23,2.38-1.86Zm11.58,4.44c-.91.95-1.79,1.87-2.68,2.8,1.47.83,2.42-.68,2.68-2.8Zm-9.81-3.04c-.07-.05-.13-.1-.2-.14-1.15.51-2.31,1.01-3.5,1.54.43.34.79,1.07,1.48.57.8-.58,1.49-1.3,2.22-1.97Zm3.29,2.13c-.78.59-1.77,1.32-2.62,1.96.62.46.87.47,1.62-.47.45-.56.8-1.19,1-1.49Zm-1.72-1.08c-.07-.04-.14-.09-.21-.13-1,.61-2,1.22-3.01,1.83,0,.1,0,.19,0,.29.47.03,1.11.28,1.37.06.7-.58,1.25-1.35,1.86-2.05Zm.89,3.7c1.26.72,2.68-.45,2.71-2.17-.87.69-1.79,1.43-2.71,2.17Zm7.14,1.15c1.6.11,2.18-.56,2.33-2.59-.76.85-1.53,1.7-2.33,2.59Z"/>
      <path class="cls-2" d="m104.73,9.17c2.1-.72,4.18-1.43,6.26-2.13.48-.16.8-.34.97-.9.28-.91,1.26-1.26,2.11-.87.8.37,1.14,1.31.76,2.09-.4.83-1.4,1.21-2.18.68-.54-.37-.96-.3-1.49-.11-1.74.62-3.49,1.21-5.23,1.8.09,1.13.48,1.73,1.66,2.02,12.6,3.04,23.17,9.5,31.83,19.11.08.09.15.2.3.39-.31.1-.56.2-.82.26-5.68,1.37-11.36,2.73-17.03,4.12-.7.17-1.27.09-1.9-.25-2.31-1.23-4.65-2.39-6.97-3.62-.33-.18-.71-.49-.82-.83-2.5-7.14-4.96-14.29-7.43-21.44-.02-.06-.01-.12-.03-.34Z"/>
      <path class="cls-1" d="m153.42,58.24c-2.87-1.26-5.56-2.43-8.23-3.64-.26-.12-.51-.49-.56-.78-1.25-7-2.48-14.01-3.66-21.03-.06-.36.22-.91.52-1.18,5.23-4.78,10.49-9.54,15.75-14.28.44-.4.73-.76.67-1.44-.07-.91.72-1.58,1.59-1.53.89.05,1.55.76,1.51,1.64-.05.92-.82,1.64-1.75,1.45-.62-.13-.95.13-1.33.48-5.03,4.57-10.07,9.13-15.11,13.7-1.15,1.04-1.16,1.75-.27,3.1,1.66,2.5,3.37,4.97,4.86,7.57,2.71,4.74,4.58,9.83,5.86,15.13.05.21.08.43.15.82Z"/>
    </g>
  </g>
</svg>