<?xml version="1.0" encoding="UTF-8"?>
<svg id="Layer_2" data-name="Layer 2" xmlns="http://www.w3.org/2000/svg" xmlns:xlink="http://www.w3.org/1999/xlink" viewBox="0 0 152.77 42.69">
  <defs>
    <style>
      .cls-1, .cls-2 {
        fill: #1c3664;
      }

      .cls-2 {
        filter: url(#drop-shadow-1);
      }
    </style>
    <filter id="drop-shadow-1" filterUnits="userSpaceOnUse">
      <feOffset dx="2" dy="2"/>
      <feGaussianBlur result="blur" stdDeviation="0"/>
      <feFlood flood-color="#fff" flood-opacity=".78"/>
      <feComposite in2="blur" operator="in"/>
      <feComposite in="SourceGraphic"/>
    </filter>
  </defs>
  <g id="Layer_1-2" data-name="Layer 1">
    <path class="cls-1" d="m6.57,2.97c1.39-.58,2.77-.88,4.16-.88-1.9,1.46-3.28,3.36-4.01,5.55,0,.22-.07.44-.15.58v25.77H0V.12h6.57v2.85Zm23.36,7.88v23.14h-6.57V11.8c0-5.18-3.65-9.71-8.83-10.58C15.91.49,17.52.12,19.2.12c5.91,0,10.73,4.82,10.73,10.73Z"/>
    <path class="cls-1" d="m39.64,33.99c-2.12,0-3.8-1.68-3.8-3.8s1.68-3.8,3.8-3.8,3.8,1.68,3.8,3.8-1.68,3.8-3.8,3.8Z"/>
    <path class="cls-1" d="m52.78.12l12.78,26.06.29.66-3.5,7.15-.29-.58L45.77.12h7.01ZM73,.12h5.91l-12.34,24.67L73,.12Z"/>
    <path class="cls-1" d="m80.26.12l12.78,26.06.29.66-3.5,7.15-.29-.58L73.25.12h7.01ZM100.48.12h5.91l-12.34,24.67L100.48.12Z"/>
    <path class="cls-1" d="m114.64,33.99c-2.12,0-3.8-1.68-3.8-3.8s1.68-3.8,3.8-3.8,3.8,1.68,3.8,3.8-1.68,3.8-3.8,3.8Z"/>
    <path class="cls-2" d="m139.27,30.39c-5.7-10.13-11.41-20.26-17.11-30.39h5.84c3.76,10.13,7.51,20.26,11.27,30.39ZM150.77,0c-3.66,13.56-7.32,27.13-10.98,40.69l-7.38-.15c-43.82-.05-87.64-.1-131.46-.15,45.76-.76,91.52-1.53,137.27-2.29,1.74-12.7,3.47-25.4,5.21-38.1h7.34Z"/>
  </g>
</svg>